<?xml version="1.0" encoding="UTF-8" standalone="no"?>
<svg
   version="1"
   viewBox="0 0 42.565479 49.547562"
   enable-background="new 0 0 48 48"
   id="svg16"
   sodipodi:docname="file-plus.svg"
   inkscape:version="1.1.1 (3bf5ae0d25, 2021-09-20)"
   width="42.565479"
   height="49.547562"
   xmlns:inkscape="http://www.inkscape.org/namespaces/inkscape"
   xmlns:sodipodi="http://sodipodi.sourceforge.net/DTD/sodipodi-0.dtd"
   xmlns="http://www.w3.org/2000/svg"
   xmlns:svg="http://www.w3.org/2000/svg">
  <defs
     id="defs20" />
  <sodipodi:namedview
     id="namedview18"
     pagecolor="#505050"
     bordercolor="#eeeeee"
     borderopacity="1"
     inkscape:pageshadow="0"
     inkscape:pageopacity="0"
     inkscape:pagecheckerboard="0"
     showgrid="false"
     inkscape:zoom="12.359637"
     inkscape:cx="33.253403"
     inkscape:cy="24.434374"
     inkscape:window-width="2560"
     inkscape:window-height="1011"
     inkscape:window-x="1920"
     inkscape:window-y="32"
     inkscape:window-maximized="1"
     inkscape:current-layer="svg16" />
  <polygon
     fill="#90CAF9"
     points="8,3 30,3 40,13 40,45 8,45 "
     id="polygon2"
     style="fill:#c9c9ca;fill-opacity:1"
     transform="translate(2.5654787,-3)" />
  <polygon
     fill="#E1F5FE"
     points="29,4.5 38.5,14 29,14 "
     id="polygon4"
     style="fill:#e1e0e0;fill-opacity:1"
     transform="translate(2.5654787,-3)" />
  <g
     fill="#1976d2"
     id="g14"
     style="fill:#555556;fill-opacity:1"
     transform="translate(2.5654787,-3)">
    <rect
       x="16"
       y="21"
       width="17"
       height="2"
       id="rect6"
       style="fill:#555556;fill-opacity:1" />
    <rect
       x="16"
       y="25"
       width="13"
       height="2"
       id="rect8"
       style="fill:#555556;fill-opacity:1" />
    <rect
       x="16"
       y="29"
       width="17"
       height="2"
       id="rect10"
       style="fill:#555556;fill-opacity:1" />
    <rect
       x="16"
       y="33"
       width="13"
       height="2"
       id="rect12"
       style="fill:#555556;fill-opacity:1" />
  </g>
  <path
     d="m 16.897007,35.945686 c -0.809462,-1.386059 -1.90907,-2.485668 -3.295128,-3.295126 -1.38791,-0.809462 -2.903339,-1.214191 -4.5462797,-1.214191 -1.6429447,0 -3.1583735,0.404729 -4.5462826,1.214191 C 3.1232579,33.460018 2.023649,34.559627 1.2141908,35.945686 0.4047288,37.333595 0,38.849024 0,40.491968 c 0,1.642941 0.4047288,3.15837 1.2141908,4.546279 0.8094582,1.386058 1.9090671,2.485667 3.2951259,3.295129 1.3860618,0.809458 2.9033379,1.214187 4.5462826,1.214187 1.6429397,0 3.1583697,-0.404729 4.5462797,-1.214187 1.386058,-0.809462 2.485666,-1.909071 3.295128,-3.295129 0.809458,-1.387909 1.214187,-2.903338 1.214187,-4.546279 0,-1.642944 -0.404729,-3.158373 -1.214187,-4.546282 z m -2.559592,5.300298 c 0,0.205136 -0.07392,0.380704 -0.223619,0.530398 C 13.964099,41.926075 13.786687,42 13.583395,42 h -3.017916 v 3.019764 c 0,0.205139 -0.07392,0.380704 -0.223619,0.530401 -0.149693,0.149694 -0.327109,0.223619 -0.5303977,0.223619 H 8.3015791 c -0.2051357,0 -0.3807043,-0.07393 -0.5303982,-0.223619 C 7.6214878,45.400468 7.5475627,45.223056 7.5475627,45.019764 V 42.001848 H 4.5277993 c -0.2051387,0 -0.3807043,-0.07392 -0.5304012,-0.223619 C 3.8477042,41.628536 3.7737836,41.45112 3.7737836,41.247831 v -1.509883 c 0,-0.205136 0.073921,-0.380704 0.2236145,-0.530398 0.1496969,-0.149693 0.3271135,-0.223618 0.5304012,-0.223618 h 3.0179161 v -3.019764 c 0,-0.205138 0.073921,-0.380704 0.2236183,-0.530401 0.1496938,-0.149694 0.3271097,-0.223614 0.5303981,-0.223614 H 9.809615 c 0.205136,0 0.380704,0.07392 0.530398,0.223614 0.149693,0.149697 0.223619,0.327114 0.223619,0.530401 v 3.017916 h 3.019763 c 0.205139,0 0.380704,0.07392 0.530401,0.223619 0.149694,0.149694 0.223619,0.327109 0.223619,0.530398 z"
     id="path2297"
     style="fill:#555556;fill-opacity:1;stroke-width:0.0184808" />
</svg>
