<?xml version="1.0" encoding="UTF-8" standalone="no"?>
<svg
   width="124.25783"
   height="34.508968"
   viewBox="0 0 124.25783 34.508968"
   version="1.1"
   id="svg1039"
   sodipodi:docname="logo.svg"
   inkscape:version="1.1.1 (3bf5ae0d25, 2021-09-20)"
   xmlns:inkscape="http://www.inkscape.org/namespaces/inkscape"
   xmlns:sodipodi="http://sodipodi.sourceforge.net/DTD/sodipodi-0.dtd"
   xmlns="http://www.w3.org/2000/svg"
   xmlns:svg="http://www.w3.org/2000/svg">
  <defs
     id="defs1043" />
  <sodipodi:namedview
     id="namedview1041"
     pagecolor="#505050"
     bordercolor="#eeeeee"
     borderopacity="1"
     inkscape:pageshadow="0"
     inkscape:pageopacity="0"
     inkscape:pagecheckerboard="0"
     showgrid="false"
     inkscape:zoom="6.7229537"
     inkscape:cx="51.539846"
     inkscape:cy="52.357939"
     inkscape:window-width="2560"
     inkscape:window-height="1011"
     inkscape:window-x="1920"
     inkscape:window-y="32"
     inkscape:window-maximized="1"
     inkscape:current-layer="svg1039" />
  <!-- Generator: Sketch 53.2 (72643) - https://sketchapp.com -->
  <title
     id="title1028">logo</title>
  <desc
     id="desc1030">Created with Sketch.</desc>
  <g
     id="Mobile"
     stroke="none"
     stroke-width="1"
     fill="none"
     fill-rule="evenodd"
     transform="translate(-0.42857313,-0.34817655)">
    <g
       id="Home"
       transform="translate(-90,-325)"
       fill="#7159c1"
       fill-rule="nonzero"
       style="display:inline">
      <g
         id="Group"
         transform="translate(30,325)"
         style="display:inline">
        <g
           id="logo"
           transform="translate(60)"
           style="display:inline">
          <g
             id="Group-3"
             style="display:inline">
            <path
               d="M 7.973225,13.495514 19.000024,20.303557 11.366086,26.665172 0.42857313,19.544628 Z M 29.98218,25.883921 v 2.410717 l -10.937513,6.540187 v 0.02232 l -0.02232,-0.02232 -0.02232,0.02232 v -0.02232 L 8.0848323,28.294638 v -2.410717 l 3.2812537,2.14286 7.633938,-6.339293 v -0.04464 l 0.02232,0.02232 0.02232,-0.02232 v 0.04464 l 7.656259,6.339293 z M 11.366086,0.34817655 19.000024,6.7097913 7.973225,13.495514 0.42857313,7.4687208 Z M 30.026823,13.495514 37.571475,19.544628 26.656283,26.665172 19.000024,20.303557 Z M 26.656283,0.34817655 37.571475,7.4687208 30.026823,13.495514 19.000024,6.7097913 Z"
               id=""
               style="display:inline" />
          </g>
        </g>
      </g>
    </g>
  </g>
  <path
     style="display:inline;fill:#7159c1;fill-opacity:1;stroke-width:0.0517671"
     d="m 69.758935,31.748042 c -0.202341,-0.02304 -0.557599,-0.0829 -0.789446,-0.132989 l -0.421552,-0.09109 v -1.78451 -1.784515 l 0.116472,0.03253 c 0.06403,0.01789 0.454263,0.04696 0.867109,0.06457 l 0.750619,0.03204 0.388244,-0.06 0.388263,-0.06 0.270441,-0.1311 0.270442,-0.1311 0.186018,-0.216853 c 0.224587,-0.261806 0.482759,-0.79297 0.661802,-1.361558 l 0.132234,-0.419961 -2.344575,-7.992187 -2.344568,-7.9921845 2.227791,-0.01352 2.227791,-0.01351 0.03286,0.05323 c 0.01804,0.02928 0.517818,2.2367495 1.110502,4.9054875 0.592677,2.668743 1.093,4.88169 1.111825,4.917665 l 0.0342,0.06541 1.055637,-4.970341 1.055636,-4.9703365 h 1.955716 1.955725 l -0.02259,0.06471 c -0.01241,0.03561 -1.209989,4.0598315 -2.661273,8.9427605 -3.352197,11.278645 -3.196487,10.835737 -4.163468,11.84275 l -0.316573,0.329671 -0.363669,0.225768 c -0.453441,0.281509 -0.80944,0.422762 -1.373121,0.544851 l -0.44002,0.0953 -0.59532,0.02545 -0.595328,0.02544 z m 18.401187,-5.514945 c -0.472876,-0.08981 -0.848597,-0.231823 -1.236767,-0.467447 l -0.2866,-0.17398 -0.310951,-0.32651 c -0.370441,-0.388993 -0.466369,-0.521902 -0.738039,-1.022571 l -0.206485,-0.380538 -0.194081,0.382996 c -0.106743,0.210649 -0.305053,0.685838 -0.440685,1.055969 l -0.246595,0.672973 -1.323918,0.01382 -1.323927,0.01382 V 14.948498 3.8953575 h 2.225983 2.225992 v 3.645958 3.6459625 l 0.504723,-0.50646 0.504722,-0.506454 0.36238,-0.2108425 c 0.199298,-0.115962 0.513781,-0.2600581 0.698847,-0.3202118 l 0.336493,-0.109373 0.543429,-0.05202 0.543438,-0.05201 0.449734,0.05468 c 0.858494,0.10438 1.562895,0.3967738 2.226726,0.9242903 l 0.386642,0.307248 0.337191,0.421442 0.337208,0.421449 0.262735,0.503661 c 0.51703,0.991093 0.796435,1.888475 0.998011,3.205393 l 0.109445,0.714893 0.02852,1.321993 0.02852,1.321992 -0.06127,0.694089 c -0.246322,2.785858 -1.0845,4.78239 -2.480755,5.909088 l -0.380214,0.306823 -0.525709,0.253343 -0.5257,0.253343 -0.440023,0.11142 -0.440014,0.11142 -0.776508,0.02092 -0.776507,0.02093 z m 0.807338,-3.2063 0.286141,-0.139997 0.175531,-0.216488 c 0.365655,-0.451 0.588633,-1.108849 0.73177,-2.158925 l 0.08803,-0.64591 0.02711,-1.527128 0.0271,-1.527133 -0.05986,-0.802388 c -0.0724,-0.970776 -0.181022,-1.652452 -0.348138,-2.183625 L 89.770075,13.427539 89.572842,13.134132 89.37561,12.840721 89.151802,12.690407 c -0.123095,-0.08267 -0.319197,-0.176125 -0.435776,-0.207675 l -0.211968,-0.05735 -0.338798,0.02395 -0.338806,0.02399 -0.313997,0.140913 -0.314006,0.140921 -0.23789,0.242062 -0.237882,0.242069 -0.154817,0.342156 -0.154809,0.34216 -0.05748,0.330813 -0.05748,0.330818 0.01819,3.338972 0.01819,3.338978 0.09069,0.3106 c 0.04989,0.170834 0.145751,0.431163 0.213037,0.578509 l 0.122335,0.267901 0.222325,0.241187 c 0.235886,0.255915 0.489739,0.40969 0.808548,0.489799 l 0.194937,0.04898 0.347424,-0.01667 0.347414,-0.01667 z m 13.69498,3.251168 c -3.268395,-0.412513 -4.980783,-2.278701 -5.575288,-6.076004 l -0.09319,-0.595322 v -1.760082 -1.760078 l 0.09383,-0.595322 c 0.556434,-3.530701 2.008197,-5.36715 4.701318,-5.9470854 l 0.49848,-0.10734 0.68321,-0.05199 0.68321,-0.05199 0.64834,0.05265 c 1.30049,0.105601 2.13401,0.3717818 3.04146,0.9712684 l 0.35881,0.237034 0.37576,0.375763 c 1.01612,1.016123 1.67027,2.515528 1.96137,4.495816 l 0.0837,0.569439 0.0379,0.905922 0.0379,0.905922 -0.038,0.905927 -0.0381,0.905923 -0.0835,0.569437 c -0.23549,1.606492 -0.70986,2.889912 -1.42383,3.852224 l -0.29134,0.392678 -0.39503,0.36374 -0.39502,0.363738 -0.40972,0.243728 c -0.52694,0.31344 -1.2019,0.572843 -1.85082,0.711313 l -0.5147,0.109829 -0.9577,0.01789 c -0.52673,0.0098 -1.03923,0.0076 -1.13887,-0.005 z m 1.63556,-3.268259 c 0.6695,-0.346655 1.01241,-1.260594 1.1583,-3.08704 l 0.0533,-0.667546 v -1.377251 -1.377254 l -0.0528,-0.698857 c -0.066,-0.875022 -0.17518,-1.515243 -0.34644,-2.033709 l -0.13312,-0.403047 -0.18665,-0.264775 -0.18666,-0.264774 -0.28471,-0.160449 -0.28472,-0.160452 -0.44002,0.0036 -0.44003,0.0036 -0.25883,0.134033 c -0.6491,0.336114 -0.98973,1.077411 -1.17196,2.550444 l -0.0705,0.569438 0.002,2.096567 0.002,2.096567 0.0886,0.621205 c 0.11025,0.773006 0.21733,1.20288 0.4021,1.614273 l 0.14377,0.320095 0.22924,0.229248 0.22927,0.229249 0.22851,0.08372 0.22852,0.08371 0.44002,-0.0155 0.44001,-0.01555 0.21199,-0.109757 z M 45.356288,14.947604 V 3.8953354 h 3.535509 3.535501 l 1.550611,6.8069876 c 0.85283,3.743846 1.563488,6.807163 1.579223,6.807371 0.02099,2.61e-4 2.526003,-9.6559331 3.454666,-13.3167005 l 0.07555,-0.2976582 h 3.436137 3.436138 V 14.947604 25.999873 H 63.707757 61.455892 V 16.77498 7.5500917 l -0.04411,0.049181 c -0.02429,0.02702 -1.027302,4.0908903 -2.229015,9.0307663 -1.201702,4.939869 -2.207752,9.068944 -2.235657,9.17571 l -0.05071,0.194129 h -1.753939 -1.753936 l -0.07922,-0.349426 c -0.04357,-0.192185 -0.954878,-4.297965 -2.025169,-9.123948 -1.070291,-4.825982 -1.96676,-8.8211099 -1.992148,-8.8780519 l -0.04617,-0.1035385 -0.0035,9.2274824 -0.0036,9.227477 h -1.941275 -1.941258 z m 65.009582,10.884024 c 0.24325,-0.40081 4.63478,-7.995554 4.68004,-8.093685 l 0.0501,-0.108614 -2.05302,-3.895244 c -1.12915,-2.142382 -2.06566,-3.9282295 -2.08114,-3.9685505 l -0.0281,-0.07331 2.44702,0.01346 2.44701,0.01346 0.85887,1.8504715 c 1.02437,2.207046 0.72027,2.209035 1.94886,-0.01274 l 1.03053,-1.8636125 h 1.95517 c 1.07535,0 1.95518,0.01202 1.95518,0.0267 0,0.01469 -0.92138,1.6000335 -2.04751,3.5229955 -1.12614,1.922968 -2.05979,3.528284 -2.07479,3.567372 l -0.0272,0.07107 2.18466,4.132164 c 1.20158,2.272693 2.28854,4.324355 2.41547,4.559247 l 0.23081,0.427077 h -2.45457 -2.45458 l -0.50998,-1.048284 c -0.28047,-0.576555 -0.82076,-1.686941 -1.20069,-2.46752 l -0.69076,-1.419237 -1.38327,2.46733 -1.38328,2.467335 -1.95843,2.08e-4 -1.95843,2.08e-4 0.10213,-0.168245 z"
     id="path2895" />
</svg>
